<svg id="Layer_1" data-name="Layer 1" xmlns="http://www.w3.org/2000/svg" xmlns:xlink="http://www.w3.org/1999/xlink" viewBox="0 0 1600 900"><defs><style>.cls-1,.cls-3,.cls-4,.cls-5,.cls-6,.cls-7,.cls-8{fill:#fff;}.cls-2{opacity:0.35;}.cls-3,.cls-4,.cls-5,.cls-6,.cls-7,.cls-8{fill-opacity:0;stroke-miterlimit:10;}.cls-3,.cls-5{stroke-width:2px;}.cls-3{stroke:url(#linear-gradient);}.cls-4,.cls-6,.cls-8{stroke-width:4px;}.cls-4{stroke:url(#linear-gradient-2);}.cls-5{stroke:url(#linear-gradient-3);}.cls-6{stroke:url(#linear-gradient-4);}.cls-7{stroke-width:8px;stroke:url(#linear-gradient-5);}.cls-8{stroke:url(#linear-gradient-6);}</style><linearGradient id="linear-gradient" x1="-196.06" y1="949.3" x2="-196.06" y2="950.3" gradientTransform="matrix(81, 0, 0, -70, 17329, 67032)" gradientUnits="userSpaceOnUse"><stop offset="0" stop-color="aqua"/><stop offset="1" stop-color="#cf6"/></linearGradient><linearGradient id="linear-gradient-2" x1="-196.01" y1="949.39" x2="-196.01" y2="950.39" gradientTransform="matrix(80, 0, 0, -80, 16181, 76091)" xlink:href="#linear-gradient"/><linearGradient id="linear-gradient-3" x1="-196.12" y1="948.83" x2="-196.12" y2="949.83" gradientTransform="matrix(83.73, 0, 0, -41.87, 16780.4, 40463)" xlink:href="#linear-gradient"/><linearGradient id="linear-gradient-4" x1="-195.33" y1="950.45" x2="-195.33" y2="949.45" gradientTransform="matrix(62.8, 0, 0, -89.2, 12416.6, 85125.38)" gradientUnits="userSpaceOnUse"><stop offset="0" stop-color="red"/><stop offset="1" stop-color="#fc0"/></linearGradient><linearGradient id="linear-gradient-5" x1="-196.51" y1="950.51" x2="-196.51" y2="949.51" gradientTransform="matrix(100, 0, 0, -100, 20740, 95760)" xlink:href="#linear-gradient-4"/><linearGradient id="linear-gradient-6" x1="-196.13" y1="950.33" x2="-196.13" y2="949.33" gradientTransform="matrix(84.1, 0, 0, -72.8, 17879.62, 69279.8)" xlink:href="#linear-gradient-4"/></defs><rect class="cls-1" width="1600" height="900"/><g class="cls-2"><path class="cls-3" d="M1409,581l41.35-70L1490,581Z"/><circle class="cls-4" cx="500" cy="100" r="40"/><path class="cls-5" d="M400.86,735.5H317.13a41.87,41.87,0,1,1,83.73,0Z"/><path class="cls-6" d="M149.8,345.2l-31.4,44.6,31.4,44.6,31.4-44.6Z"/><rect class="cls-7" x="1039" y="709" width="100" height="100"/><path class="cls-8" d="M1426.8,132.4l-21.1,36.4h-42l-21-36.4,21-36.4h42Z"/></g></svg>